<svg xmlns="http://www.w3.org/2000/svg" width="168" height="70" fill="none"><path fill="#3E3A39" d="M120.224 5.946c0 .59-.469 1.067-1.047 1.067a1.057 1.057 0 0 1-1.046-1.067c0-.59.469-1.067 1.046-1.067s1.047.477 1.047 1.067M143.442 6.59h1.021c.071 0 .129-.062.129-.14v-.977c0-.079-.058-.141-.129-.141h-8.023c-.07 0-.128.062-.128.141v.976c0 .079.058.141.128.141h7.002M132.993 3.281h-1.74c-.071 0-.129-.062-.129-.141V.989c0-.08-.058-.141-.129-.141h-.793c-.07 0-.128.062-.128.14V3.14c0 .079-.059.141-.129.141h-2.459c-.07 0-.128-.062-.128-.141V1.084c0-.079-.058-.14-.129-.14h-.781c-.07 0-.129.061-.129.14V3.14c0 .079-.058.141-.128.141h-1.819c-.071 0-.129.062-.129.141v.872c0 .08.058.142.129.142h1.819c.07 0 .128.062.128.14v2.675c0 .079.059.141.129.141h.781c.071 0 .129-.062.129-.14V4.576c0-.08.058-.141.128-.141h2.459c.07 0 .129.062.129.14v.528c0 3.073-.848 4.136-2.646 4.95-.087.037-.108.162-.041.233l.668.735c.038.041.1.054.15.029 2.338-1.254 2.919-2.961 2.919-6.013v-.453c0-.079.058-.141.129-.141h1.736c.07 0 .128-.062.128-.141v-.877c0-.078-.058-.14-.124-.14M156.003 2.227c-.261-.37-.639-.872-.93-1.213a.143.143 0 0 0-.199-.016l-.445.37a.136.136 0 0 0-.016.198c.307.353.668.843.93 1.221a.118.118 0 0 0 .179.025l.456-.39a.15.15 0 0 0 .025-.2M157.195 1.262c-.262-.37-.64-.872-.931-1.213a.143.143 0 0 0-.199-.016l-.444.37a.136.136 0 0 0-.017.199c.307.353.669.843.93 1.22.042.063.125.075.179.025l.457-.39a.154.154 0 0 0 .025-.2M150.455 9.314c-.482-.12-.698-.261-.698-.839V6.142c0-.063.037-.12.091-.137 1.283-.395 2.957-.976 4.033-1.479.29-.124.681-.324.967-.477.062-.034.087-.112.062-.183l-.328-.868c-.029-.079-.112-.108-.178-.07a10 10 0 0 1-.893.46c-.955.47-2.409 1.005-3.592 1.354-.083.025-.162-.045-.162-.137V1.33c0-.08-.058-.141-.129-.141h-.814c-.07 0-.128.062-.128.14v7.509c0 1.005.473 1.486 1.308 1.665.432.083 1.05.12 1.686.12 1.088 0 2.558-.079 3.5-.224.063-.008.108-.07.108-.141V9.186c0-.092-.074-.158-.158-.138-.884.233-2.375.35-3.392.35-.494 0-.976-.026-1.283-.084M165.172 6.368a.24.24 0 0 1-.029-.295c.672-1.05 1.241-2.32 1.582-3.251.066-.183.12-.32.195-.598a.14.14 0 0 0-.046-.154l-.328-.278a.2.2 0 0 0-.128-.05h-5.768c-.071 0-.129.062-.129.141v.91c0 .079.058.141.129.141.88 0 2.155-.008 2.288 0h2.304c.088 0 .15.096.121.191-.283.918-.926 2.122-1.582 2.973-.985 1.284-2.459 2.67-4.062 3.43-.083.038-.103.154-.045.225l.643.789c.038.045.104.062.154.033 1.362-.764 2.649-1.931 3.7-3.19a.23.23 0 0 1 .357-.008c.88.972 1.753 2.09 2.384 3.048.087.137.253.15.365.034l.561-.578a.24.24 0 0 0 .021-.303c-.636-.88-1.728-2.226-2.691-3.21M39.068 2.146l.914.216a.14.14 0 0 1 .1.162c-.038.257-.125.793-.166 1.004-.133.79-.536 2.384-.939 3.568a18.5 18.5 0 0 1-1.453 3.239.123.123 0 0 1-.162.05l-.88-.432a.15.15 0 0 1-.055-.208c.615-1.005 1.126-2.218 1.47-3.19.436-1.237.798-2.89 1.014-4.293.012-.079.083-.133.153-.116m3.065.178.81-.311c.062-.025.128.004.157.07.424.922 1.068 2.57 1.462 3.734a58 58 0 0 1 1.18 4.015c.016.07-.017.146-.084.17l-.926.35c-.07.028-.15-.021-.166-.1a47 47 0 0 0-1.088-4.016c-.382-1.18-.984-2.782-1.42-3.712-.037-.075 0-.17.07-.2M74.088 6.464l-.735.316c-.07.029-.145-.013-.17-.087-.187-.644-.603-1.902-.835-2.45-.033-.075 0-.166.07-.195l.723-.304c.062-.029.133.005.162.075.237.586.656 1.81.856 2.47.02.072-.013.15-.075.18m5.228-1.716c-.328 1.234-.818 2.446-1.582 3.451a8.03 8.03 0 0 1-3.41 2.625c-.05.02-.103 0-.14-.042l-.62-.789c-.062-.079-.029-.2.063-.228 1.13-.353 2.42-1.142 3.268-2.234.722-.93 1.262-2.35 1.545-3.742.016-.083.095-.133.17-.1l.768.32c.063.025.096.1.08.17-.059.233-.1.416-.142.574m-3.148 1.025-.722.303c-.071.03-.15-.012-.17-.095a28 28 0 0 0-.732-2.342.15.15 0 0 1 .075-.191l.719-.278c.066-.025.137.012.162.083.195.552.59 1.777.743 2.346a.15.15 0 0 1-.079.174M63.278 1.184h-.843c-.07 0-.128.062-.128.14v5.582c0 .079.058.141.128.141h.843c.07 0 .13-.062.13-.141V1.325c0-.08-.06-.141-.13-.141M67.181 1.086c-.07 0-.128.062-.128.141V4.4c-.009 1.985-.15 2.902-.852 3.833-.593.76-1.374 1.204-2.267 1.495-.091.029-.124.153-.062.232l.656.802a.116.116 0 0 0 .137.037c.743-.295 1.732-.839 2.38-1.72.76-1.004 1.129-2.022 1.129-4.762v-3.09c0-.079-.058-.141-.129-.141zM86.15 4.927a29 29 0 0 0-2.1-1.494.12.12 0 0 0-.17.05l-.45.788c-.037.067-.02.158.042.2.62.394 1.529 1.075 2.068 1.511.059.05.146.03.183-.041l.461-.822a.15.15 0 0 0-.033-.192M87.521 2.567a36 36 0 0 0-2.08-1.561c-.063-.042-.138-.021-.175.045l-.448.79c-.038.066-.021.153.041.195.602.407 1.52 1.113 2.043 1.549.058.05.141.033.183-.038l.465-.789a.15.15 0 0 0-.029-.19M87.114 8.247c-1.025.66-2.209 1.092-3.305 1.33-.083.016-.129.12-.087.207l.477.971c.03.054.083.083.137.071.935-.22 2.317-.78 3.322-1.462 1.624-1.096 3.023-2.583 3.95-4.165.033-.062.024-.141-.025-.187l-.673-.63c-.058-.055-.145-.042-.191.028-.839 1.429-2.101 2.845-3.609 3.841M97.368 4.823c.166-.2.486-.577.631-.751a.144.144 0 0 0 0-.183c-.581-.673-1.736-1.753-2.442-2.321a.14.14 0 0 0-.199.02c-.145.179-.428.536-.573.715a.144.144 0 0 0 .02.199c.72.59 1.799 1.69 2.355 2.325.058.071.158.067.216 0M101.873 3.94c-.062-.058-.153-.038-.195.037-.694 1.362-1.84 2.82-3.256 3.837a9.7 9.7 0 0 1-3.853 1.64c-.092.017-.137.13-.088.212l.544.972c.03.05.084.079.137.066 1.554-.344 2.833-1.034 3.85-1.764 1.561-1.118 2.799-2.691 3.546-4.207a.15.15 0 0 0-.029-.175l-.656-.614zM58.519 2.227c-.262-.37-.64-.872-.93-1.213a.143.143 0 0 0-.2-.016l-.444.37a.136.136 0 0 0-.017.198c.308.353.669.843.93 1.221a.117.117 0 0 0 .18.025l.456-.39a.153.153 0 0 0 .025-.2M59.715 1.262c-.262-.37-.64-.872-.93-1.213a.143.143 0 0 0-.2-.016l-.444.37a.136.136 0 0 0-.016.199c.307.353.668.843.93 1.22a.117.117 0 0 0 .178.025l.457-.39a.153.153 0 0 0 .025-.2M114.813 2.227c-.262-.37-.64-.872-.93-1.213a.144.144 0 0 0-.2-.016l-.444.37a.137.137 0 0 0-.017.198c.308.353.669.843.931 1.221a.117.117 0 0 0 .178.025l.457-.39a.154.154 0 0 0 .025-.2M116.009 1.262c-.262-.37-.639-.872-.93-1.213a.143.143 0 0 0-.199-.016l-.445.37a.136.136 0 0 0-.016.199c.307.353.668.843.93 1.22a.117.117 0 0 0 .178.025l.457-.39a.15.15 0 0 0 .025-.2M113.148 2.647a.13.13 0 0 0-.1-.054h-3.144c-.095 0-.158-.117-.112-.212.245-.503.37-.764.478-1.026.029-.075 0-.166-.075-.19l-.851-.333c-.067-.025-.137.012-.162.083-.096.287-.27.718-.378.934-.461 1.005-1.354 2.558-2.994 3.792a.232.232 0 0 0-.009.365l.528.453a.23.23 0 0 0 .303.004 11.7 11.7 0 0 0 2.409-2.737.12.12 0 0 1 .103-.058h2.994c.083 0 .146.087.125.179-.22 1-.81 2.396-1.528 3.355-.885 1.188-2.056 2.222-3.916 2.907-.091.033-.121.162-.05.237l.739.776c.038.038.092.05.141.03 1.877-.86 3.065-1.982 4.037-3.281 1.071-1.433 1.673-3.522 1.918-4.456a.24.24 0 0 0-.037-.2l-.419-.572zM56.351 1.989a.12.12 0 0 0-.103-.059h-5.636c-.087 0-.992-.012-.992-.012-.07 0-.129.062-.129.141v.935c0 .078.058.14.129.14h5.893c.079 0 .14.075.128.163-.157 1.075-.59 2.512-1.262 3.513-.826 1.204-1.927 2.205-3.82 2.79-.092.03-.125.15-.063.229l.694.88a.12.12 0 0 0 .14.042c1.816-.685 3.04-1.852 4-3.214.984-1.396 1.424-3.534 1.611-4.531a.23.23 0 0 0-.033-.17l-.548-.852zM13.288 3.198h6.425c.078 0 .14.07.14.154v1.407c0 .088.063.154.142.154h.644c.079 0 .14-.07.14-.154V2.392c0-.087-.061-.153-.14-.153h-.956a.19.19 0 0 1-.157-.295c.216-.316.432-.66.63-1 .05-.084.013-.2-.074-.233L19.39.453a.134.134 0 0 0-.17.08c-.22.502-.557 1.124-.864 1.614a.19.19 0 0 1-.158.088h-1.59l.369-.166a.16.16 0 0 0 .079-.196 7.8 7.8 0 0 0-.706-1.49C16.31.324 16.245.3 16.183.329l-.557.24c-.079.034-.112.142-.07.22.2.378.398.819.535 1.197a.19.19 0 0 1-.178.253h-1.595l.241-.133c.07-.037.096-.129.062-.208-.178-.403-.502-.926-.805-1.337A.13.13 0 0 0 13.65.52L13.1.806a.16.16 0 0 0-.05.233c.2.286.395.614.549.922a.19.19 0 0 1-.17.274h-1.01c-.078 0-.14.07-.14.153v2.367c0 .088.062.154.14.154h.594c.08 0 .142-.07.142-.154V3.348c0-.088.062-.154.14-.154M32.241 6.22V3.523c0-.079-.058-.141-.128-.141h-3.02c-.07 0-.128.062-.128.141v7.134c0 .08.058.142.129.142h3.592c.07 0 .128-.067.128-.146V7.47c0-.079-.058-.141-.128-.141h-2.75c-.07 0-.128-.062-.128-.141v-.69c0-.079.058-.14.129-.14h2.176c.07 0 .128-.063.128-.142m-2.304-1.96h1.324c.07 0 .129.062.129.141v.943c0 .079-.058.14-.129.14h-1.324c-.071 0-.13-.061-.13-.14v-.943c0-.079.059-.141.13-.141m2.01 4.12v1.361c0 .08-.059.142-.13.142h-1.885c-.07 0-.128-.063-.128-.142V8.374c0-.079.058-.14.128-.14h1.886c.07 0 .128.061.128.14"/><path fill="#3E3A39" d="M29.077 2.612c0-.08.058-.141.129-.141H32c.07 0 .13.062.13.14v.873c0 .079.057.141.128.141h.614c.071 0 .13-.062.13-.141v-1.76c0-.08-.059-.142-.13-.142H31.15c-.07 0-.129-.062-.129-.141V.473c0-.079-.058-.141-.128-.141h-.648c-.07 0-.129.062-.129.141v.968c0 .079-.058.141-.129.141h-1.615c-.07 0-.129.062-.129.141v1.76c0 .08.058.142.129.142h.577c.07 0 .129-.062.129-.141zM1.603 3.231C1.37 4.693.876 6.528.113 7.716c-.047.07-.026.174.045.212.203.108.46.274.648.423.058.046.137.03.178-.033.806-1.267 1.337-3.23 1.661-4.859a.144.144 0 0 0-.104-.17l-.797-.166c-.07-.012-.137.037-.15.116M7.745 3.12l-.797.166c-.07.016-.117.091-.104.17.324 1.628.855 3.592 1.66 4.859.042.062.121.078.18.033a5 5 0 0 1 .647-.424c.07-.037.096-.137.046-.212C8.613 6.525 8.119 4.69 7.89 3.228c-.012-.08-.079-.13-.15-.117M4.352.508c-.07 0-.128.062-.128.141v8.937c0 .232-.07.303-.283.315-.07.004-.207.008-.378.008h-1.03c-.09 0-.153.104-.116.2.087.224.17.486.225.702.016.062.066.103.12.103h1.49c.437 0 .831-.311.935-.784a2.7 2.7 0 0 0 .046-.544V.649c0-.079-.058-.141-.129-.141h-.756zM17.212 6.712c.424-.311 1.304-.876 1.703-1.262.029-.025.041-.067.041-.108v-.943c0-.079-.058-.141-.128-.141h-4.826c-.07 0-.129.062-.129.141v.664c0 .08.059.142.13.142h3.396c.129 0 .179.186.07.261-.298.212-.655.415-.93.586a.2.2 0 0 1-.1.029h-.29c-.07 0-.129.062-.129.141v.523c0 .08-.058.141-.128.141h-3.659c-.07 0-.129.063-.129.142v.722c0 .08.059.141.13.141h3.658c.07 0 .128.063.128.142V9.66c0 .22-.066.287-.265.295a6 6 0 0 1-.357.009h-.96c-.091 0-.153.103-.116.195.083.207.158.448.208.648.016.062.066.1.124.1h1.4c.41 0 .78-.296.88-.74.037-.166.046-.34.046-.51V8.027c0-.078.058-.14.128-.14h3.696c.07 0 .13-.063.13-.142v-.723c0-.078-.06-.14-.13-.14h-3.538c-.087 0-.12-.121-.045-.175M28.217 10.28c-.203-.697-.656-1.664-1.121-2.437-.038-.058-.104-.079-.162-.05l-.503.266a.147.147 0 0 0-.053.204c.107.195.224.398.328.614.037.083 0 .183-.084.204-.348.1-.693.195-1.025.286-.083.021-.158-.045-.158-.137V7.461c0-.079.058-.141.129-.141h2.167c.071 0 .13-.062.13-.141V3.583c0-.08-.059-.142-.13-.142h-.818c-.07 0-.128-.062-.128-.14v-.52c0-.079-.059-.141-.13-.141h-.535c-.07 0-.129.062-.129.141v.52c0 .078-.058.14-.128.14h-.66a.188.188 0 0 1-.15-.303c.307-.398.826-1.1 1.08-1.524a.187.187 0 0 1 .323.004c.208.37.457.764.752 1.155.07.095.22.1.295.008.1-.124.216-.245.324-.349a.19.19 0 0 0 .02-.253 8 8 0 0 1-.988-1.748.13.13 0 0 0-.116-.083h-.897a.13.13 0 0 0-.116.083 7.5 7.5 0 0 1-1.732 2.579.19.19 0 0 0 0 .278c.125.12.258.274.357.415.046.066.129.079.187.025l.07-.07v5.859c0 .066-.04.124-.099.137q-.223.057-.415.108c-.07.016-.117.1-.096.178l.195.723c.021.075.092.116.158.095.781-.253 1.736-.56 2.666-.872.063-.02.129.013.154.083.096.25.17.49.228.702.021.083.108.125.179.087l.565-.303c.058-.029.087-.104.066-.17m-2.778-5.91c0-.078.058-.14.129-.14H26.9c.07 0 .128.062.128.14v.478c0 .08-.058.141-.128.141h-1.333c-.07 0-.129-.062-.129-.14zm0 1.496c0-.08.058-.142.129-.142H26.9c.07 0 .128.063.128.142v.498c0 .079-.058.141-.128.141h-1.333c-.07 0-.129-.062-.129-.141zM45.168.402c-.718 0-1.308.623-1.308 1.391 0 .769.59 1.38 1.308 1.38s1.321-.611 1.321-1.38-.59-1.39-1.32-1.39m0 2.056c-.348 0-.635-.303-.635-.669 0-.365.287-.68.635-.68.35 0 .644.31.644.68a.66.66 0 0 1-.644.669"/><path fill="#009F5D" d="M113.6 62.578c-9.086 0-15.323 1.773-21.141 6.855H75.54C84.669 58.574 96.607 51.66 113.6 51.66h53.187c.669 0 1.213.544 1.213 1.213v8.492c0 .668-.544 1.212-1.213 1.212z"/><path fill="#F3994F" d="M54.4 62.578c9.086 0 15.323 1.773 21.141 6.855h16.918C83.331 58.574 71.392 51.66 54.399 51.66H1.214C.544 51.66 0 52.204 0 52.873v8.492c0 .668.544 1.212 1.213 1.212z"/><path fill="#3E3A39" d="M28.05 29.663c-.04 0-.074-.033-.082-.075a1.01 1.01 0 0 0-.424-.69q-.38-.271-.96-.27-.41 0-.718.138a1.1 1.1 0 0 0-.469.374.9.9 0 0 0-.166.54q0 .255.112.436.113.181.3.307.186.124.398.203.211.082.411.133l.656.179q.324.081.66.224.339.143.627.374.289.23.47.573.179.343.178.818-.002.604-.294 1.071a2 2 0 0 1-.852.735q-.555.27-1.345.27c-.528 0-.939-.083-1.308-.253a2 2 0 0 1-.864-.718 2.16 2.16 0 0 1-.34-1.01.09.09 0 0 1 .087-.095h.85c.042 0 .076.033.084.079q.043.33.228.56c.137.17.32.295.536.378q.328.125.718.125.431.002.769-.145.337-.143.531-.403a.98.98 0 0 0 .195-.602.77.77 0 0 0-.17-.515 1.3 1.3 0 0 0-.457-.333 4.4 4.4 0 0 0-.648-.232l-.797-.229q-.81-.23-1.279-.68-.471-.45-.47-1.192 0-.612.317-1.067a2.1 2.1 0 0 1 .855-.71 2.8 2.8 0 0 1 1.217-.254c.452 0 .86.083 1.208.253q.525.253.826.694.28.406.312.918c0 .05-.037.09-.087.09zM33.1 27.8h.844c.045 0 .087.038.087.088v2.907c0 .05.038.087.087.087H37.3a.09.09 0 0 0 .087-.087v-2.907c0-.046.038-.087.088-.087h.847c.05 0 .087.037.087.087v6.914a.09.09 0 0 1-.087.087h-.847a.09.09 0 0 1-.088-.087v-2.915a.09.09 0 0 0-.087-.087h-3.18a.09.09 0 0 0-.088.087v2.915a.09.09 0 0 1-.087.087H33.1a.09.09 0 0 1-.087-.087v-6.914c0-.046.037-.087.087-.087M48.474 31.345q-.001 1.134-.394 1.952c-.262.544-.623.959-1.08 1.254q-.686.435-1.557.436a2.85 2.85 0 0 1-1.562-.436q-.686-.437-1.08-1.255c-.26-.544-.394-1.191-.394-1.947q.001-1.135.395-1.952.393-.814 1.08-1.254.683-.435 1.56-.436c.586 0 1.101.145 1.558.436q.686.436 1.08 1.254c.261.544.394 1.192.394 1.952m-1.005-.004q.001-.866-.266-1.458-.267-.59-.722-.9a1.84 1.84 0 0 0-1.038-.308c-.386 0-.735.104-1.038.307q-.454.303-.723.901c-.174.395-.266.88-.266 1.458q0 .866.266 1.457.261.592.723.901c.303.204.652.308 1.038.308q.578-.001 1.038-.308.46-.304.722-.9.264-.593.266-1.458M84.403 27.8h.847c.046 0 .087.038.087.088v4.572q-.001.742-.332 1.316-.33.572-.934.902-.604.326-1.412.328c-.54 0-1.005-.108-1.408-.328a2.4 2.4 0 0 1-.934-.901 2.6 2.6 0 0 1-.333-1.317v-4.572c0-.046.038-.087.088-.087h.843c.045 0 .087.037.087.087v4.489q-.001.48.203.855.206.375.573.586c.25.141.54.212.88.212q.511 0 .885-.212t.573-.585q.2-.376.2-.856v-4.489c0-.046.037-.087.087-.087M89.56 34.802v-6.914c0-.046.038-.087.088-.087h.843c.045 0 .087.037.087.087v3.206a.07.07 0 0 0 .124.046l2.758-3.306s.041-.03.066-.03h1.051c.075 0 .112.088.066.142l-2.55 2.994a.09.09 0 0 0-.004.108l2.592 3.704a.086.086 0 0 1-.07.137H93.6a.08.08 0 0 1-.07-.037l-2.085-3.031a.088.088 0 0 0-.137-.009l-.702.851s-.02.034-.02.055v2.084a.09.09 0 0 1-.088.087h-.843a.085.085 0 0 1-.087-.087M71.102 34.802v-6.914c0-.046.037-.087.087-.087h.843c.045 0 .087.037.087.087v3.206c0 .066.079.095.12.046l2.758-3.306s.041-.03.066-.03h1.05c.076 0 .113.088.067.142l-2.55 2.994a.09.09 0 0 0-.004.108l2.592 3.704a.086.086 0 0 1-.071.137h-1.01a.08.08 0 0 1-.07-.037l-2.084-3.031a.088.088 0 0 0-.137-.009l-.702.851s-.02.034-.02.055v2.084a.09.09 0 0 1-.088.087h-.843a.09.09 0 0 1-.087-.087M130.917 28.926a1.9 1.9 0 0 0-.772-.822c-.345-.2-.777-.303-1.304-.303h-2.313a.086.086 0 0 0-.088.087v6.914c0 .046.038.087.088.087h.843a.09.09 0 0 0 .087-.087v-2.317c0-.05.037-.087.087-.087h1.296q.784 0 1.299-.303.517-.306.777-.823.256-.521.257-1.175c0-.436-.087-.822-.257-1.17m-.909 1.886c-.096.211-.25.373-.453.498-.208.12-.473.183-.806.183h-1.2a.09.09 0 0 1-.087-.088v-2.6c0-.05.037-.087.087-.087h1.188q.505 0 .818.175c.208.116.357.282.457.49q.147.31.145.714-.001.404-.145.714M134.475 34.953a.66.66 0 0 1-.485-.203.67.67 0 0 1-.204-.49.65.65 0 0 1 .204-.486.66.66 0 0 1 .485-.204q.28 0 .486.204a.66.66 0 0 1 .204.486.66.66 0 0 1-.096.349.7.7 0 0 1-.249.249.66.66 0 0 1-.345.091M142.956 29.663c-.042 0-.075-.033-.083-.075a1.03 1.03 0 0 0-.424-.69q-.38-.271-.959-.27-.415 0-.718.138a1.1 1.1 0 0 0-.47.374.9.9 0 0 0-.166.54q0 .255.112.436.113.181.299.307.188.124.399.203.211.082.411.133l.656.179q.324.081.66.224.339.143.628.374.287.23.469.573.179.343.178.818 0 .604-.295 1.071a1.98 1.98 0 0 1-.851.735q-.554.27-1.345.27c-.528 0-.939-.083-1.308-.253a2 2 0 0 1-.864-.718 2.1 2.1 0 0 1-.336-1.01.09.09 0 0 1 .087-.095h.847c.041 0 .079.033.083.079q.042.33.232.56c.137.17.32.295.536.378q.325.125.719.125.43.002.768-.145.337-.143.531-.403a.98.98 0 0 0 .196-.602.77.77 0 0 0-.171-.515 1.3 1.3 0 0 0-.457-.333 4.3 4.3 0 0 0-.647-.232l-.798-.229q-.81-.23-1.279-.68c-.311-.3-.473-.698-.473-1.192q-.001-.612.316-1.067.315-.455.855-.71a2.8 2.8 0 0 1 1.217-.254c.452 0 .859.083 1.208.253q.525.253.827.694.28.406.311.918c0 .05-.037.09-.087.09zM113.397 27.888a.09.09 0 0 0-.087-.087h-.835a.087.087 0 0 0-.087.087v4.979c0 .07-.092.096-.129.037l-3.335-5.066a.08.08 0 0 0-.07-.037h-.806a.087.087 0 0 0-.087.087v6.914c0 .046.037.087.087.087h.843c.05 0 .087-.037.087-.087v-4.97c0-.071.088-.096.129-.038l3.33 5.058a.09.09 0 0 0 .075.037h.802c.05 0 .087-.037.087-.087v-6.914zM64.993 27.859a.085.085 0 0 0-.079-.058h-1.05a.09.09 0 0 0-.084.058l-2.363 6.914c-.02.058.021.116.08.116h.896a.08.08 0 0 0 .08-.058l.577-1.756a.085.085 0 0 1 .083-.059h2.504a.09.09 0 0 1 .083.059l.577 1.756a.085.085 0 0 0 .083.058h.893c.058 0 .1-.058.083-.116zm-1.595 4.16.926-2.81c.021-.063.112-.063.133 0l.922 2.81c.017.047-.02.092-.066.092h-1.848c-.046 0-.083-.045-.067-.091M55.53 32.146h1.482c.05 0 .091.042.087.092a2.1 2.1 0 0 1-.22.872q-.224.431-.635.664a1.9 1.9 0 0 1-.96.237q-.592-.001-1.054-.308c-.308-.203-.553-.506-.731-.9-.179-.4-.266-.881-.266-1.458 0-.578.087-1.055.266-1.45.178-.394.415-.697.722-.9a1.8 1.8 0 0 1 1.026-.308q.335 0 .615.096.279.094.502.27c.15.116.274.261.382.427.091.146.17.312.228.49a.085.085 0 0 0 .08.058h.876c.054 0 .1-.05.087-.103a2.8 2.8 0 0 0-.307-.827 2.6 2.6 0 0 0-.615-.739 2.7 2.7 0 0 0-.843-.482 3 3 0 0 0-1.017-.17 2.9 2.9 0 0 0-1.205.25 2.7 2.7 0 0 0-.955.722q-.406.473-.631 1.146t-.224 1.52q0 1.119.386 1.935t1.071 1.258q.69.444 1.603.445.815 0 1.45-.358c.423-.236.751-.573.992-1.013q.36-.652.361-1.549v-.718a.09.09 0 0 0-.087-.087h-2.47a.09.09 0 0 0-.088.087v.71c0 .05.037.087.087.087M101.856 27.859a.08.08 0 0 0-.079-.058h-1.05a.09.09 0 0 0-.083.058l-2.363 6.914c-.02.058.02.116.079.116h.897a.08.08 0 0 0 .079-.058l.577-1.756a.085.085 0 0 1 .083-.059h2.504a.09.09 0 0 1 .083.059l.577 1.756a.085.085 0 0 0 .083.058h.893c.058 0 .1-.058.083-.116zm-1.599 4.16.927-2.81c.02-.063.112-.063.132 0l.922 2.81c.017.047-.02.092-.066.092h-1.848c-.046 0-.083-.045-.067-.091"/></svg>