<svg xmlns="http://www.w3.org/2000/svg" width="168" height="176" fill="none"><path fill="#3E3A39" d="M39.091 95.72h2.039c.14 0 .255-.127.255-.28V93.5c0-.158-.115-.285-.255-.285H25.156c-.14 0-.255.127-.255.284v1.941c0 .157.115.28.255.28zM18.288 89.13c-.786 0-2.013 0-3.462.005-.14 0-.259-.127-.259-.285v-4.28c0-.158-.114-.28-.255-.28h-1.575c-.14 0-.255.126-.255.28v4.285c0 .157-.11.284-.255.284H7.33c-.14 0-.255-.127-.255-.28V84.76c0-.157-.114-.284-.255-.284H5.262c-.14 0-.255.127-.255.284v4.099c0 .157-.115.285-.26.285H1.126c-.14 0-.255.127-.255.284v1.737c0 .157.115.285.255.285h3.627c.14 0 .255.127.255.284v5.322c0 .157.115.28.255.28H6.82c.14 0 .255-.127.255-.28v-5.322c0-.157.115-.284.255-.284h4.893c.14 0 .255.127.255.284v1.05c0 6.115-1.69 8.23-5.271 9.853-.17.076-.217.318-.085.463l1.334 1.461a.24.24 0 0 0 .293.055c4.655-2.497 5.814-5.895 5.814-11.977v-.905c0-.157.115-.284.255-.284h3.461c.14 0 .255-.128.255-.285v-1.75c0-.153-.11-.28-.25-.28M64.519 86.617c-.523-.739-1.27-1.737-1.852-2.412a.28.28 0 0 0-.395-.034l-.884.734a.28.28 0 0 0-.033.4c.611.7 1.333 1.677 1.851 2.429.085.123.247.149.357.051l.909-.773a.304.304 0 0 0 .047-.395M67.003 84.39c-.522-.739-1.27-1.737-1.852-2.412a.28.28 0 0 0-.395-.034l-.883.735a.28.28 0 0 0-.034.4c.611.7 1.334 1.677 1.852 2.428.085.124.246.15.356.051l.91-.773a.304.304 0 0 0 .046-.394M53.06 101.148c-.965-.238-1.394-.523-1.394-1.67v-4.65c0-.128.073-.238.183-.272 2.557-.786 5.887-1.945 8.027-2.947.578-.251 1.36-.646 1.924-.948.123-.063.174-.225.123-.36l-.65-1.734c-.06-.152-.22-.216-.356-.14-.59.344-1.185.642-1.78.913-1.898.935-4.795 2-7.156 2.697-.162.047-.319-.089-.319-.276v-6.528c0-.157-.115-.28-.255-.28H49.79c-.14 0-.255.127-.255.28v14.955c0 2 .943 2.956 2.6 3.313.862.165 2.09.237 3.359.237 2.166 0 5.092-.152 6.97-.441.127-.022.216-.14.216-.281v-2.132c0-.182-.153-.318-.31-.276-1.758.463-4.727.697-6.753.697-.981 0-1.945-.047-2.56-.166M82.786 95.282a.47.47 0 0 1-.06-.582c1.343-2.09 2.468-4.62 3.152-6.481.127-.365.238-.637.39-1.19a.3.3 0 0 0-.088-.305l-.65-.552a.4.4 0 0 0-.26-.098H73.783c-.14 0-.255.128-.255.285v1.813c0 .157.115.28.255.28 1.754-.008 4.294-.012 4.553.005h4.587000000000001c.178 0 .297.191.242.378-.565 1.826-1.847 4.226-3.147 5.916-1.958 2.557-4.897 5.318-8.087 6.834-.161.076-.208.301-.089.446l1.287 1.571a.24.24 0 0 0 .306.064c2.714-1.516 5.275-3.844 7.364-6.35a.457.457 0 0 1 .71-.02c1.754 1.936 3.487 4.157 4.744 6.069.178.267.505.297.73.067l1.117-1.151a.464.464 0 0 0 .043-.603c-1.266-1.758-3.436-4.434-5.364-6.396M27.203 5.73h12.793c.152 0 .276.14.276.305v2.803c0 .17.123.31.28.31h1.282c.153 0 .28-.14.28-.31V4.124c0-.17-.122-.306-.28-.306h-1.902a.377.377 0 0 1-.315-.586c.425-.633.858-1.312 1.262-1.988.098-.17.025-.395-.145-.458L39.35.276c-.132-.05-.276.017-.34.157a26 26 0 0 1-1.724 3.215.37.37 0 0 1-.319.17H33.8l.735-.331c.14-.064.208-.234.157-.39-.285-.863-.837-2.044-1.41-2.965a.263.263 0 0 0-.332-.11l-1.108.475c-.157.068-.225.276-.14.437.395.752.794 1.631 1.066 2.379a.376.376 0 0 1-.357.5h-3.173l.476-.262a.326.326 0 0 0 .127-.412c-.356-.803-.998-1.844-1.605-2.66a.256.256 0 0 0-.331-.08l-1.087.57c-.162.084-.209.31-.102.462.395.57.79 1.228 1.091 1.835a.378.378 0 0 1-.34.544h-2.004c-.153 0-.276.136-.276.305V8.83c0 .17.123.31.276.31h1.18c.153 0 .28-.14.28-.31V6.027c0-.17.124-.306.277-.306M64.944 11.747V6.378c0-.157-.115-.284-.255-.284h-6.014c-.14 0-.255.127-.255.284V20.59c0 .158.115.28.255.28h7.152c.14 0 .255-.127.255-.284v-6.34c0-.158-.115-.281-.255-.281h-5.475c-.14 0-.254-.128-.254-.285v-1.367c0-.157.114-.285.254-.285h4.337c.14 0 .255-.127.255-.284m-4.592-3.9h2.638c.14 0 .255.128.255.285v1.877c0 .158-.115.285-.255.285h-2.638c-.14 0-.254-.127-.254-.285V8.128c0-.157.114-.284.254-.284m4.01 8.193v2.714c0 .157-.115.28-.255.28h-3.755c-.14 0-.254-.127-.254-.28v-2.714c0-.157.114-.284.254-.284h3.755c.14 0 .255.127.255.284"/><path fill="#3E3A39" d="M58.645 4.568c0-.158.114-.285.255-.285h5.563c.14 0 .255.127.255.285v1.737c0 .157.115.28.255.28H66.2c.14 0 .255-.127.255-.28V2.8c0-.157-.114-.285-.255-.285h-3.436c-.14 0-.254-.127-.254-.28V.312c0-.157-.115-.285-.255-.285h-1.287c-.14 0-.255.128-.255.285v1.924c0 .157-.115.28-.255.28h-3.215c-.14 0-.255.128-.255.285v3.508c0 .157.115.28.255.28h1.147c.14 0 .255-.127.255-.28V4.568M3.933 5.797C3.47 8.711 2.49 12.364.97 14.725c-.094.144-.051.344.093.416.408.213.917.544 1.291.841.115.09.272.06.353-.068 1.605-2.523 2.663-6.434 3.308-9.68.03-.156-.06-.305-.204-.335l-1.584-.335c-.14-.03-.272.072-.297.225M16.169 5.567l-1.585.336c-.14.03-.233.183-.203.336.645 3.244 1.703 7.152 3.308 9.679.08.127.238.153.353.064a10 10 0 0 1 1.29-.841c.145-.077.188-.276.094-.417-1.52-2.365-2.501-6.018-2.964-8.927-.026-.157-.157-.255-.298-.225M9.407.379c-.14 0-.255.127-.255.28v17.796c0 .467-.14.603-.56.629-.145.008-.412.012-.756.012H5.784c-.187 0-.306.208-.233.4.174.445.34.964.45 1.397.03.119.127.204.242.204h2.969c.87 0 1.652-.62 1.86-1.559.077-.353.093-.726.093-1.083V.663c0-.157-.114-.28-.254-.28H9.403zM35.014 12.728c.845-.62 2.594-1.745 3.389-2.514a.3.3 0 0 0 .085-.212V8.124c0-.157-.115-.284-.255-.284H28.62c-.14 0-.254.127-.254.284v1.321c0 .157.114.285.254.285h6.762c.255 0 .352.37.14.522-.599.42-1.304.828-1.856 1.168a.36.36 0 0 1-.195.055h-.578c-.14 0-.255.128-.255.28v1.041c0 .158-.114.28-.255.28h-7.283c-.14 0-.255.128-.255.285v1.436c0 .157.114.284.255.284h7.28c.14 0 .254.128.254.285v3.245c0 .437-.132.569-.527.59-.135.009-.39.013-.713.013h-1.907c-.183 0-.306.208-.234.39.162.413.315.893.416 1.292.03.119.132.204.247.204h2.786c.82 0 1.554-.582 1.754-1.47.072-.331.09-.684.09-1.023v-3.245c0-.158.114-.285.254-.285h7.36c.14 0 .255-.127.255-.284v-1.436c0-.157-.114-.285-.255-.285h-7.046c-.17 0-.233-.242-.093-.348M56.929 19.835c-.404-1.394-1.308-3.313-2.234-4.85a.24.24 0 0 0-.323-.098l-.998.526c-.14.072-.187.26-.106.404.22.386.446.798.654 1.227.08.162-.004.365-.166.408q-1.045.294-2.047.569c-.161.042-.314-.094-.314-.276V14.22c0-.157.114-.285.255-.285h4.315c.14 0 .255-.127.255-.28V6.498c0-.157-.115-.284-.255-.284h-1.627c-.14 0-.255-.128-.255-.285V4.893c0-.157-.114-.285-.255-.285h-1.066c-.14 0-.255.128-.255.285v1.036c0 .157-.114.285-.254.285h-1.317a.373.373 0 0 1-.297-.603c.611-.799 1.648-2.188 2.153-3.037a.375.375 0 0 1 .65.013c.416.739.909 1.52 1.495 2.297.144.192.437.2.59.013.204-.25.43-.493.646-.692a.374.374 0 0 0 .042-.506A15.4 15.4 0 0 1 54.253.217a.25.25 0 0 0-.23-.166h-.216L52.236.047a.255.255 0 0 0-.234.166c-.658 1.635-1.813 3.576-3.453 5.134a.374.374 0 0 0 0 .548c.25.238.518.548.71.828.089.132.258.153.373.047.021-.021.077-.076.14-.144v11.671a.28.28 0 0 1-.203.276c-.298.072-.57.145-.829.212-.144.039-.233.2-.19.357l.386 1.44c.042.149.178.234.314.191a572 572 0 0 0 5.313-1.733c.123-.042.26.03.31.162.187.5.344.972.455 1.397.042.17.212.25.356.174l1.122-.603c.114-.06.17-.204.131-.336M51.4 8.083c0-.158.115-.285.255-.285h2.659c.14 0 .254.127.254.285v.947c0 .157-.114.28-.254.28h-2.66c-.14 0-.254-.127-.254-.28zm0 2.977c0-.157.115-.285.255-.285h2.659c.14 0 .254.128.254.285v.994c0 .157-.114.28-.254.28h-2.66c-.14 0-.254-.127-.254-.28zM167.59 52.569c0 1.172-.934 2.124-2.085 2.124s-2.09-.952-2.09-2.124.934-2.124 2.09-2.124 2.085.952 2.085 2.124M5.563 45.007l1.818.429c.132.03.22.17.2.318a69 69 0 0 1-.327 2c-.268 1.572-1.07 4.745-1.87 7.106-.708 2.14-1.821 4.608-2.891 6.452-.068.119-.204.161-.319.102L.42 60.55c-.144-.072-.195-.267-.106-.416 1.223-2.005 2.247-4.417 2.93-6.354.871-2.467 1.584-5.755 2.013-8.553.026-.158.162-.26.306-.226m6.1.357 1.617-.62a.24.24 0 0 1 .31.136c.846 1.839 2.124 5.122 2.91 7.437.747 2.204 1.784 5.733 2.353 7.993a.284.284 0 0 1-.166.34l-1.839.696c-.14.056-.293-.038-.331-.2-.552-2.54-1.38-5.542-2.166-7.997-.756-2.353-1.958-5.542-2.833-7.39-.072-.153 0-.34.144-.395M75.715 53.612l-1.466.628c-.135.06-.288-.021-.335-.174-.374-1.287-1.198-3.788-1.66-4.876-.064-.148 0-.327.14-.386l1.44-.608a.246.246 0 0 1 .322.145c.471 1.164 1.304 3.606 1.707 4.918.043.145-.02.297-.148.353m10.405-3.41c-.654 2.454-1.63 4.875-3.147 6.867-1.945 2.586-4.485 4.32-6.791 5.224a.24.24 0 0 1-.276-.085l-1.236-1.567c-.123-.157-.055-.404.127-.459 2.251-.697 4.817-2.272 6.511-4.451 1.436-1.856 2.515-4.685 3.075-7.445.034-.17.191-.264.336-.204l1.525.637c.123.05.19.2.157.34-.115.463-.2.828-.28 1.142m-6.269 2.05-1.44.608c-.14.06-.297-.03-.335-.191-.293-1.18-1.01-3.487-1.457-4.668-.06-.153.013-.323.153-.378l1.432-.552c.131-.05.271.021.322.161.391 1.105 1.173 3.543 1.483 4.672.038.145-.03.293-.153.344M54.19 43.082h-1.682c-.14 0-.255.127-.255.285v11.119c0 .157.115.284.255.284h1.682c.14 0 .255-.127.255-.284v-11.12c0-.157-.115-.284-.255-.284M61.967 42.895c-.14 0-.255.127-.255.284v6.311c-.013 3.959-.302 5.777-1.7 7.637-1.18 1.508-2.739 2.4-4.514 2.977-.182.06-.246.306-.119.463l1.308 1.597a.235.235 0 0 0 .272.076c1.478-.59 3.449-1.669 4.736-3.419 1.516-2.004 2.25-4.03 2.25-9.488V43.18c0-.157-.114-.285-.254-.285h-1.724M100.213 50.275c-1.117-.603-3.283-1.657-4.634-2.209-.132-.055-.272.013-.323.153l-.607 1.703a.3.3 0 0 0 .153.374c1.35.565 3.372 1.58 4.578 2.25.136.077.293.01.348-.144l.62-1.77a.3.3 0 0 0-.131-.362M102.089 45.159c-1.117-.629-3.275-1.742-4.617-2.34a.24.24 0 0 0-.327.148l-.607 1.703c-.051.145.013.31.149.37 1.325.594 3.368 1.66 4.54 2.327.132.077.293.013.348-.136l.641-1.711c.051-.136 0-.298-.123-.366M101.656 57.15c-2.043 1.313-4.4 2.175-6.58 2.647-.169.038-.258.242-.173.412l.951 1.932c.055.11.166.17.276.144 1.865-.437 4.613-1.554 6.613-2.913 3.236-2.187 6.023-5.144 7.87-8.295a.31.31 0 0 0-.051-.37l-1.342-1.26c-.119-.111-.293-.082-.378.059-1.673 2.84-4.188 5.661-7.186 7.649M122.608 49.947c.259-.446.748-1.3.973-1.69a.29.29 0 0 0-.068-.361c-1.368-1.117-4.014-2.837-5.594-3.708a.28.28 0 0 0-.382.11c-.221.404-.658 1.198-.879 1.597a.28.28 0 0 0 .11.383c1.614.909 4.111 2.692 5.42 3.746.14.114.327.08.42-.077M131.051 48.575c-.124-.115-.306-.077-.387.076-1.38 2.71-3.661 5.619-6.481 7.64-1.894 1.356-4.434 2.642-7.675 3.271-.178.034-.272.255-.178.425l1.079 1.932a.25.25 0 0 0 .271.132c3.097-.684 5.636-2.064 7.667-3.513 3.109-2.225 5.576-5.355 7.067-8.38a.3.3 0 0 0-.06-.352l-1.303-1.227zM44.715 44.75c-.523-.74-1.27-1.737-1.852-2.413a.28.28 0 0 0-.395-.034l-.883.735a.28.28 0 0 0-.034.4c.611.7 1.333 1.677 1.852 2.429.084.123.246.149.356.05l.91-.772a.304.304 0 0 0 .046-.395M47.402 42.516c-.522-.74-1.27-1.738-1.851-2.413a.28.28 0 0 0-.395-.034l-.884.735a.28.28 0 0 0-.034.4c.612.7 1.334 1.677 1.852 2.428.085.124.246.15.357.051l.909-.773a.304.304 0 0 0 .046-.394M157.231 44.75c-.523-.74-1.27-1.737-1.852-2.413a.28.28 0 0 0-.395-.034l-.884.735a.28.28 0 0 0-.034.4c.612.7 1.334 1.677 1.852 2.429.085.123.246.149.357.05l.909-.772a.306.306 0 0 0 .047-.395M159.924 42.516a34 34 0 0 0-1.852-2.413.28.28 0 0 0-.395-.034l-.883.735a.28.28 0 0 0-.034.4c.611.7 1.333 1.677 1.852 2.428.084.124.246.15.356.051l.909-.773a.3.3 0 0 0 .047-.394M153.501 46.005a.24.24 0 0 0-.199-.106h-6.256c-.196 0-.315-.23-.225-.42.488-.999.734-1.517.947-2.04.063-.152-.005-.326-.149-.382l-1.695-.658c-.131-.05-.276.021-.322.166-.196.573-.54 1.427-.748 1.856-.917 2.004-2.697 5.096-5.959 7.551a.47.47 0 0 0-.021.73l1.053.905a.48.48 0 0 0 .608.013c1.953-1.592 3.58-3.542 4.799-5.453a.25.25 0 0 1 .208-.12h5.959c.166 0 .289.175.246.353-.437 1.988-1.614 4.77-3.041 6.681-1.758 2.37-4.09 4.43-7.802 5.793-.182.068-.238.327-.097.472l1.469 1.546a.24.24 0 0 0 .276.055c3.738-1.707 6.099-3.946 8.036-6.532 2.136-2.854 3.33-7.012 3.822-8.873a.46.46 0 0 0-.076-.399l-.837-1.138zM39.983 44.69a.26.26 0 0 0-.208-.118H28.554c-.178-.004-1.975-.021-1.975-.021-.14 0-.255.127-.255.28v1.86c0 .157.115.285.255.285h11.735c.157 0 .276.153.255.323-.31 2.14-1.172 4.999-2.519 6.995-1.643 2.395-3.84 4.391-7.61 5.56-.183.055-.251.3-.128.458l1.38 1.754c.068.09.179.12.28.085 3.615-1.368 6.057-3.69 7.964-6.4 1.958-2.778 2.837-7.042 3.21-9.021a.46.46 0 0 0-.067-.34l-1.096-1.695zM17.71 41.527c-1.426 0-2.603 1.24-2.603 2.765s1.177 2.744 2.604 2.744 2.629-1.215 2.629-2.744-1.177-2.765-2.63-2.765m.005 4.095c-.692 0-1.265-.6-1.265-1.33s.569-1.35 1.265-1.35c.697 0 1.283.62 1.283 1.35s-.59 1.33-1.283 1.33"/><path fill="#009F5D" d="M113.51 169.153c-9.076 0-15.311 1.771-21.126 6.847H75.481c9.118-10.848 21.049-17.758 38.029-17.758h53.141c.671 0 1.21.544 1.21 1.211v8.486a1.21 1.21 0 0 1-1.21 1.21H113.51z"/><path fill="#F3994F" d="M54.356 169.153c9.076 0 15.31 1.771 21.125 6.847h16.904c-9.119-10.848-21.05-17.758-38.03-17.758H1.21A1.21 1.21 0 0 0 0 159.453v8.486c0 .671.544 1.21 1.21 1.21h53.141z"/><path fill="#3E3A39" d="M6.239 128.57a.12.12 0 0 1-.115-.102 1.4 1.4 0 0 0-.59-.956q-.53-.377-1.334-.378-.573 0-.994.191-.42.193-.65.518-.229.33-.229.748-.001.352.157.607c.107.17.242.31.417.425q.256.171.552.285c.2.076.386.136.569.186l.913.251q.446.116.917.314.47.199.871.519.402.319.65.798.249.477.25 1.138a2.74 2.74 0 0 1-.407 1.487q-.409.649-1.181 1.023-.772.375-1.869.374c-.73 0-1.304-.115-1.818-.352q-.767-.35-1.202-.999a2.9 2.9 0 0 1-.471-1.401.123.123 0 0 1 .123-.132h1.18c.06 0 .107.047.116.106.038.31.148.57.318.778.191.233.442.407.743.522q.452.171.998.17c.4 0 .752-.068 1.067-.2q.465-.198.739-.556.269-.358.271-.837.001-.439-.233-.718a1.8 1.8 0 0 0-.633-.462 6 6 0 0 0-.9-.323l-1.105-.319c-.747-.212-1.342-.531-1.78-.947q-.654-.625-.653-1.652-.001-.849.437-1.487c.293-.42.688-.751 1.185-.985q.747-.352 1.69-.352c.629 0 1.194.114 1.678.352q.726.351 1.147.964c.259.374.399.799.433 1.274a.12.12 0 0 1-.123.128h-1.13M13.256 125.992h1.168c.068 0 .119.055.119.119v4.035c0 .068.055.119.119.119h4.416a.12.12 0 0 0 .12-.119v-4.035c0-.068.055-.119.118-.119h1.173c.067 0 .119.055.119.119v9.599a.12.12 0 0 1-.12.119h-1.172a.12.12 0 0 1-.118-.119v-4.052a.12.12 0 0 0-.12-.119h-4.416a.12.12 0 0 0-.12.119v4.052a.12.12 0 0 1-.118.119h-1.168a.12.12 0 0 1-.12-.119v-9.599c0-.068.056-.119.12-.119M34.602 130.906q0 1.575-.548 2.705c-.365.756-.867 1.334-1.5 1.742q-.95.609-2.161.607c-.807 0-1.533-.204-2.166-.607q-.95-.607-1.5-1.742-.547-1.133-.547-2.705c0-1.049.182-1.954.548-2.706.365-.756.866-1.333 1.499-1.741s1.355-.607 2.166-.607q1.215 0 2.162.607.95.606 1.499 1.741.548 1.133.548 2.706m-1.397 0q-.002-1.204-.366-2.026c-.242-.548-.582-.964-1.002-1.249a2.53 2.53 0 0 0-1.44-.425c-.535 0-1.02.141-1.444.425-.425.285-.756.701-1.002 1.249q-.37.822-.37 2.026t.37 2.026c.246.547.577.964 1.002 1.248q.636.426 1.444.425c.54 0 1.015-.14 1.44-.425q.638-.427 1.002-1.248.364-.822.366-2.026M84.493 125.992h1.172c.069 0 .12.055.12.119v6.35q0 1.034-.46 1.826a3.25 3.25 0 0 1-1.295 1.249q-.835.453-1.958.454-1.12-.001-1.953-.454a3.25 3.25 0 0 1-1.296-1.249c-.305-.531-.463-1.138-.463-1.826v-6.35c0-.068.056-.119.12-.119h1.167c.068 0 .12.055.12.119v6.231q0 .669.28 1.185.278.516.798.815.516.296 1.223.297.709.001 1.232-.297.518-.293.794-.815.275-.524.276-1.185v-6.231c0-.068.055-.119.119-.119M91.65 135.71v-9.599c0-.068.055-.119.119-.119h1.168c.068 0 .119.055.119.119v4.451c0 .089.114.132.17.064l3.826-4.587a.12.12 0 0 1 .094-.043h1.456c.102 0 .157.119.094.2l-3.542 4.162a.13.13 0 0 0-.009.149l3.598 5.143a.118.118 0 0 1-.098.187h-1.402a.12.12 0 0 1-.097-.051l-2.897-4.213c-.047-.064-.14-.072-.191-.009l-.977 1.181a.13.13 0 0 0-.03.077v2.896a.12.12 0 0 1-.119.119h-1.168a.12.12 0 0 1-.118-.119M66.023 135.71v-9.599c0-.068.055-.119.119-.119h1.168c.068 0 .119.055.119.119v4.451c0 .089.11.132.17.064l3.826-4.591a.12.12 0 0 1 .094-.043h1.456a.12.12 0 0 1 .09.2l-3.543 4.162a.13.13 0 0 0-.008.149l3.597 5.143a.118.118 0 0 1-.097.187h-1.402a.12.12 0 0 1-.098-.051l-2.896-4.213c-.047-.064-.14-.072-.191-.009l-.977 1.181a.13.13 0 0 0-.026.076v2.897a.12.12 0 0 1-.119.119h-1.168a.12.12 0 0 1-.118-.119M149.08 127.551a2.67 2.67 0 0 0-1.07-1.143q-.714-.418-1.809-.416h-3.211a.12.12 0 0 0-.119.119v9.599c0 .068.055.119.119.119h1.168a.12.12 0 0 0 .119-.119v-3.22c0-.068.055-.119.119-.119h1.796c.727 0 1.326-.14 1.805-.42.48-.28.837-.663 1.079-1.143q.357-.719.357-1.63c0-.608-.119-1.143-.357-1.627m-1.261 2.62a1.5 1.5 0 0 1-.629.688q-.427.253-1.117.251H144.4a.12.12 0 0 1-.119-.119v-3.606c0-.068.055-.119.119-.119h1.652q.7-.001 1.134.247c.289.165.497.39.633.679s.2.616.2.99q-.001.56-.2.994M154.024 135.915a.92.92 0 0 1-.675-.28.92.92 0 0 1-.281-.679c0-.268.094-.489.281-.676a.92.92 0 0 1 .675-.28.92.92 0 0 1 .675.28.93.93 0 0 1 .285.676.9.9 0 0 1-.132.484 1 1 0 0 1-.348.348.9.9 0 0 1-.48.127M165.797 128.57a.12.12 0 0 1-.114-.102 1.4 1.4 0 0 0-.591-.955q-.53-.377-1.333-.378-.573 0-.994.191-.42.191-.65.518a1.27 1.27 0 0 0-.229.747c0 .234.051.438.157.603q.157.254.416.425c.17.115.357.208.552.285q.298.112.569.187l.914.25q.446.117.917.314.47.199.871.519.401.323.649.798.25.477.251 1.138a2.74 2.74 0 0 1-.408 1.487q-.41.649-1.18 1.023-.773.375-1.869.374c-.731 0-1.304-.114-1.818-.352a2.8 2.8 0 0 1-1.202-.998 2.9 2.9 0 0 1-.471-1.402.123.123 0 0 1 .123-.132h1.176c.06 0 .111.047.115.107.038.31.149.569.318.777q.292.35.744.522.451.171.998.17a2.7 2.7 0 0 0 1.066-.2q.466-.198.735-.556a1.36 1.36 0 0 0 .267-.837q.001-.439-.233-.717a1.8 1.8 0 0 0-.633-.463 6 6 0 0 0-.901-.323l-1.104-.319q-1.122-.323-1.779-.947-.656-.625-.655-1.652 0-.849.438-1.486a2.94 2.94 0 0 1 1.185-.986 3.95 3.95 0 0 1 1.69-.352c.629 0 1.194.114 1.678.352q.726.352 1.147.964.381.561.433 1.274a.12.12 0 0 1-.123.128h-1.13zM124.748 126.111a.12.12 0 0 0-.119-.118h-1.155a.12.12 0 0 0-.119.118v6.915c0 .098-.123.132-.178.051l-4.63-7.034a.12.12 0 0 0-.102-.055h-1.121a.12.12 0 0 0-.119.119v9.599c0 .068.055.119.119.119h1.172a.12.12 0 0 0 .119-.119V128.8c0-.098.123-.132.179-.051l4.625 7.025a.12.12 0 0 0 .102.055h1.112a.12.12 0 0 0 .119-.119v-9.599zM57.54 126.073a.12.12 0 0 0-.11-.081h-1.46a.12.12 0 0 0-.115.081l-3.283 9.599c-.026.076.03.161.11.161h1.245c.05 0 .097-.034.11-.085l.803-2.438a.12.12 0 0 1 .114-.081h3.479c.05 0 .098.034.114.081l.799 2.438a.12.12 0 0 0 .115.085h1.24c.08 0 .14-.081.114-.161l-3.283-9.599zm-2.216 5.776 1.282-3.903a.096.096 0 0 1 .183 0l1.283 3.903a.095.095 0 0 1-.09.127h-2.565a.095.095 0 0 1-.089-.127M44.4 132.015h2.06c.068 0 .127.059.123.127a2.86 2.86 0 0 1-.306 1.21q-.311.601-.879.926c-.378.217-.824.327-1.33.327a2.6 2.6 0 0 1-1.465-.429q-.642-.425-1.01-1.253-.37-.829-.37-2.021 0-1.19.37-2.018c.246-.547.577-.968 1.002-1.253a2.5 2.5 0 0 1 1.423-.428q.465-.001.853.131.39.129.697.378.305.25.527.595.19.307.318.684c.017.046.06.08.11.08h1.215a.128.128 0 0 0 .124-.148 3.8 3.8 0 0 0-1.275-2.175 3.8 3.8 0 0 0-1.168-.667 4.2 4.2 0 0 0-1.414-.233q-.91-.002-1.673.348c-.51.234-.952.565-1.33 1.002s-.666.969-.875 1.593q-.311.936-.31 2.115 0 1.555.535 2.689.535 1.133 1.491 1.745c.637.408 1.38.616 2.226.616q1.135-.001 2.009-.493a3.54 3.54 0 0 0 1.38-1.406c.331-.607.501-1.325.501-2.149v-.998a.12.12 0 0 0-.119-.119H44.41a.12.12 0 0 0-.12.119v.986c0 .068.056.119.12.119M108.724 126.073a.12.12 0 0 0-.111-.081h-1.461a.13.13 0 0 0-.115.081l-3.283 9.599c-.025.076.03.161.111.161h1.244a.114.114 0 0 0 .111-.085l.802-2.438a.12.12 0 0 1 .115-.081h3.478c.051 0 .098.034.115.081l.799 2.438a.12.12 0 0 0 .114.085h1.24a.123.123 0 0 0 .115-.161l-3.283-9.599zm-2.213 5.776 1.282-3.903a.096.096 0 0 1 .183 0l1.283 3.903a.096.096 0 0 1-.094.127H106.6c-.064 0-.11-.063-.094-.127"/></svg>