<svg xmlns="http://www.w3.org/2000/svg" width="25" height="25" fill="none"><g fill="#F38F3D" clip-path="url(#a)"><path d="M5.23 20.11h3.937c.276 0 .5-.208.5-.465v-7.017c0-.256-.224-.464-.5-.464H5.23c-.276 0-.5.208-.5.464v7.017c0 .257.224.464.5.464M12.408 20.108h3.937c.276 0 .5-.208.5-.464V7.694c0-.256-.224-.464-.5-.464h-3.937c-.277 0-.5.208-.5.464v11.95c0 .256.223.464.5.464M19.585 20.106h3.937c.277 0 .5-.208.5-.464V2.069c0-.256-.223-.464-.5-.464h-3.937c-.276 0-.5.208-.5.464v17.573c0 .256.224.464.5.464"/><path d="M24.19 22.222H2.779V0H0v25h25v-2.778z"/></g><defs><clipPath id="a"><path fill="#fff" d="M0 0h25v25H0z"/></clipPath></defs></svg>