<svg xmlns="http://www.w3.org/2000/svg" width="25" height="25" fill="none"><path fill="#F38F3D" d="M23.957 5.973h-5.212v-3.93c0-.575-.468-1.043-1.043-1.043H7.298c-.575 0-1.043.468-1.043 1.043v3.93H1.043C.468 5.973 0 6.441 0 7.016v5.059l11.457 2.936v-.522c0-.574.468-1.042 1.043-1.042s1.043.468 1.043 1.042v.522L25 12.075V7.016c0-.575-.468-1.043-1.043-1.043M8.34 3.085h8.325v2.888H8.34z"/><path fill="#F38F3D" d="M13.543 18.022c0 .574-.468 1.043-1.043 1.043a1.044 1.044 0 0 1-1.043-1.043v-.862L0 14.22v8.74C0 23.532.468 24 1.043 24h22.914c.575 0 1.043-.468 1.043-1.043v-8.74l-11.457 2.937v.867"/></svg>